# xmcd
#
# Track frame offsets:
#	187
#	13925
#	30825
#	49087
#	59962
#	77647
#	92870
#	109945
#	124770
#	138307
#	151400
#	168037
#	187817
#	201230
#
# Disc length: 2876 seconds
#
# Revision: 0
# Processed by: cddbd v1.5.2PL0 Copyright (c) Steve Scherf et al.
# Submitted via: audiograbber 1.83.01
#
DISCID=b70b3a0e
DTITLE=Various Artist - CMA Awards 1993
DYEAR=1993
DGENRE=Country
TTITLE0=Travis Tritt - T-R-O-U-B-L-E
TTITLE1=Vince Gill - Don't let your love start slippin' away
TTITLE2=John Michael Montgomery - I love the way you love me
TTITLE3=Alan Jackson - She got the rhythm (and I got the blues) 
TTITLE4=Trisha Yearwood - Down on my knees
TTITLE5=Sawyer Brown - All these years
TTITLE6=Garth Brooks - We shall be free
TTITLE7=Reba McEntire - Take it back
TTITLE8=Diamond Rio - In a week or two
TTITLE9=John Anderson - Straight Tequila night
TTITLE10=Clint Black w. Wynonna - A bad goodbye
TTITLE11=Mary Chapin Carpenter - The hard way
TTITLE12=Brooks and Dunn - Hard workin' man
TTITLE13=Pam Tillis - Cleopatra, Queen of denial
EXTD=
EXTT0=
EXTT1=
EXTT2=
EXTT3=
EXTT4=
EXTT5=
EXTT6=
EXTT7=
EXTT8=
EXTT9=
EXTT10=
EXTT11=
EXTT12=
EXTT13=
PLAYORDER=
